PathFileType	4	(X/Y/Z)	C:/Users/opensim2020/Desktop/walking_exp_matlab/subject06_walking18_straight_02.trc																																																																																																																																											
DataRate	CameraRate	NumFrames	NumMarkers	Units	OrigDataRate	OrigDataStartFrame	OrigNumFrames																																																																																																																																							
100	100	7	47	mm	100	2252	326																																																																																																																																							
Frame#	Time	LFHD			RFHD			LBHD			RBHD			C7			T10			CLAV			STRN			RBAK			LSHO			LUPA			LELB			LFRM			LWRA			LWRB			LFIN			RSHO			RUPA			RELB			RFRM			RWRA			RWRB			RFIN			LASI			RASI			LPSI			RPSI			LTHI			LKNE			LTIB			LANK			LHEE			LTOE			RTHI			RKNE			RTIB			RANK			RHEE			RTOE			*39			*40			*41			*42			*43			*44			*45			*46		
		X1	Y1	Z1	X2	Y2	Z2	X3	Y3	Z3	X4	Y4	Z4	X5	Y5	Z5	X6	Y6	Z6	X7	Y7	Z7	X8	Y8	Z8	X9	Y9	Z9	X10	Y10	Z10	X11	Y11	Z11	X12	Y12	Z12	X13	Y13	Z13	X14	Y14	Z14	X15	Y15	Z15	X16	Y16	Z16	X17	Y17	Z17	X18	Y18	Z18	X19	Y19	Z19	X20	Y20	Z20	X21	Y21	Z21	X22	Y22	Z22	X23	Y23	Z23	X24	Y24	Z24	X25	Y25	Z25	X26	Y26	Z26	X27	Y27	Z27	X28	Y28	Z28	X29	Y29	Z29	X30	Y30	Z30	X31	Y31	Z31	X32	Y32	Z32	X33	Y33	Z33	X34	Y34	Z34	X35	Y35	Z35	X36	Y36	Z36	X37	Y37	Z37	X38	Y38	Z38	X39	Y39	Z39	X40	Y40	Z40	X41	Y41	Z41	X42	Y42	Z42	X43	Y43	Z43	X44	Y44	Z44	X45	Y45	Z45	X46	Y46	Z46	X47	Y47	Z47
																																																																																																																																														
1	0	-1156.88184	1664.10364	929.40735	-1162.38733	1656.65906	1061.75745	-1290.07361	1608.70459	925.55579	-1293.5199	1606.71924	1054.9259	-1294.34058	1453.02795	978.81085	-1324.71252	1122.8042	982.68542	-1183.62146	1378.20935	994.34894	-1140.47803	1202.67236	995.23804	-1374.28564	1280.47998	1049.10974	-1214.15735	1408.4187	827.42523	-1179.25024	1209.02356	754.2146	-1159.27173	1097.97644	741.27777	-1086.80054	964.81036	731.96198	-1002.51703	877.82471	791.15198	-1048.83594	851.97266	744.40857	-982.10199	791.63879	755.36218	-1250.70093	1408.72266	1147.31128	-1292.99683	1209.48096	1230.37427	-1282.43872	1088.67297	1245.59705	-1257.59375	971.61084	1265.70862	-1178.46533	840.86249	1242.9259	-1237.08411	835.93573	1276.34058	-1192.07874	764.52405	1283.42651	-1133.02502	961.7876	905.09485	-1163.74329	975.57904	1124.70715	-1293.45776	989.88586	911.49188	-1311.80908	993.54517	1078.28186	-1214.92627	645.78546	856.04529	-1234.16956	483.21478	883.09869	-1302.56812	233.4575	901.69861	-1327.995	65.4996	955.86908	-1370.76196	55.22048	999.73071	-1184.74451	33.46101	965.68365	-1169.15552	645.97833	1195.79883	-1131.11255	524.08588	1181.60107	-1206.6366	271.66068	1187.82446	-1243.03088	86.53645	1155.255	-1276.59729	59.96764	1105.88477	-1097.80334	40.80298	1182.00659	-1259.86951	1703.24512	983.58832	NaN	NaN	NaN	NaN	NaN	NaN	NaN	NaN	NaN	NaN	NaN	NaN	NaN	NaN	NaN	NaN	NaN	NaN	NaN	NaN	NaN
2	0.01	-1151.92444	1663.68213	929.55237	-1157.61865	1656.16968	1061.90002	-1285.18445	1608.57397	925.64691	-1289.05457	1606.50159	1054.97192	-1289.95203	1452.78381	978.73602	-1320.69287	1122.54443	982.58728	-1179.29749	1377.84912	994.36798	-1136.27002	1202.34424	995.28101	-1370.17029	1280.32458	1048.88245	-1209.6134	1408.19458	827.47083	-1174.3938	1208.89063	754.2793	-1154.13513	1097.88318	741.32281	-1080.49756	965.3244	732.47913	-995.15436	879.60278	792.00507	-1041.46143	852.96356	745.53064	-973.94238	793.28741	756.71088	-1246.59717	1408.42126	1147.28003	-1289.49878	1209.26208	1230.2511	-1279.51343	1088.42395	1245.53271	-1255.98425	971.1322	1265.89087	-1178.44958	839.27686	1243.48096	-1237.12622	835.13708	1276.86804	-1193.08923	763.21393	1284.23438	-1128.64197	961.52136	905.20197	-1159.61133	975.70245	1124.82776	-1289.13318	989.4151	911.44208	-1307.62024	993.28918	1078.23083	-1211.06982	645.50702	856.50452	-1231.27185	482.99869	883.44025	-1301.31665	233.57541	901.69208	-1327.50549	65.54433	955.9126	-1370.49146	55.38235	999.5199	-1184.42285	33.50116	965.74146	-1163.97424	645.97681	1196.32336	-1124.56372	524.6308	1182.00769	-1192.05505	270.15619	1188.74011	-1222.21973	83.77709	1156.672	-1255.43103	56.59661	1107.51428	-1075.30042	41.1919	1181.76392	-1254.91382	1703.02368	983.67389	NaN	NaN	NaN	NaN	NaN	NaN	NaN	NaN	NaN	NaN	NaN	NaN	NaN	NaN	NaN	NaN	NaN	NaN	NaN	NaN	NaN
3	0.02	-1146.98645	1663.14441	929.7713	-1152.93213	1655.61609	1062.10779	-1280.46216	1608.43127	925.50928	-1284.48218	1606.28528	1054.99902	-1285.58411	1452.4696	978.71838	-1316.49207	1122.19104	982.52686	-1175.01855	1377.40454	994.43683	-1132.07849	1201.91711	995.34967	-1365.96851	1280.0553	1048.65308	-1205.12952	1407.85168	827.54083	-1169.72034	1208.68921	754.26587	-1148.96924	1097.6803	741.3382	-1074.2616	965.6767	733.03436	-988.0097	881.20575	792.86273	-1034.23035	853.72729	746.78448	-966.25714	794.7782	758.2348	-1242.45276	1408.0188	1147.27954	-1286.0072	1208.98914	1230.23743	-1276.64294	1088.10242	1245.49988	-1254.29761	970.58527	1266.11572	-1178.17834	837.81189	1244.28931	-1237.03882	834.39178	1277.44043	-1193.92688	761.92456	1285.03345	-1124.37683	961.13715	905.30658	-1155.4325	975.73071	1124.96558	-1284.72107	988.89465	911.42322	-1303.31531	992.96161	1078.23877	-1207.42432	645.16992	856.94543	-1228.33313	482.69394	883.81024	-1300.09802	233.7243	901.6488	-1327.23877	65.74238	955.87488	-1370.38452	55.72133	999.3808	-1184.34607	33.4537	965.80359	-1157.93787	646.69543	1196.80029	-1118.09888	524.99396	1182.32434	-1177.51624	268.79742	1189.62122	-1200.97363	81.20064	1157.87292	-1233.7356	53.18957	1109.1123	-1052.87146	41.33233	1181.33643	-1250.00391	1702.73315	983.76825	NaN	NaN	NaN	NaN	NaN	NaN	NaN	NaN	NaN	NaN	NaN	NaN	NaN	NaN	NaN	NaN	NaN	NaN	NaN	NaN	NaN
4	0.03	-1142.22546	1662.64832	929.97516	-1148.26025	1655.00403	1062.37024	-1275.71765	1608.16406	925.58185	-1279.74158	1605.97559	1054.92188	-1281.21594	1452.07715	978.72913	-1312.31128	1121.75671	982.61212	-1170.677	1376.87915	994.53522	-1127.96606	1201.36597	995.46832	-1361.81128	1279.70764	1048.49976	-1200.74768	1407.47961	827.62744	-1165.17114	1208.40625	754.31396	-1144.01746	1097.35095	741.52649	-1068.20264	965.93372	733.62909	-981.03088	882.64648	793.73737	-1027.14807	854.41168	748.11786	-958.71362	796.05096	759.73706	-1238.30713	1407.50793	1147.30371	-1282.5448	1208.63293	1230.24976	-1273.78601	1087.73181	1245.60474	-1252.5885	970.01807	1266.44214	-1177.78845	836.35681	1245.11316	-1236.90381	833.74219	1278.13867	-1194.52039	760.62103	1285.85864	-1119.89563	960.63953	905.54932	-1151.04089	975.42047	1125.0636	-1280.28687	988.38953	911.51947	-1298.96655	992.55182	1078.35132	-1203.74438	644.81354	857.36591	-1225.65771	482.40302	884.15106	-1298.83264	233.81065	901.61987	-1326.95239	65.9296	955.82806	-1370.18384	55.91137	999.26886	-1184.26086	33.41316	965.85028	-1152.65515	646.51373	1197.21338	-1111.75208	525.27618	1182.65393	-1162.97766	267.60266	1190.53467	-1180.21826	79.20726	1159.505	-1212.43958	50.72832	1110.74048	-1030.75439	41.2887	1181.02515	-1245.10022	1702.39087	983.88428	NaN	NaN	NaN	NaN	NaN	NaN	NaN	NaN	NaN	NaN	NaN	NaN	NaN	NaN	NaN	NaN	NaN	NaN	NaN	NaN	NaN
5	0.04	-1137.34875	1662.07825	930.32214	-1143.62146	1654.32507	1062.6145	-1270.91113	1607.81177	925.76746	-1275.17969	1605.58716	1054.97461	-1276.81848	1451.59741	978.80298	-1307.96997	1121.24988	982.76776	-1166.35095	1376.3606	994.69403	-1123.62317	1200.92651	995.65253	-1357.54834	1279.24768	1048.33289	-1196.36584	1407.00073	827.73199	-1160.61401	1208.0166	754.46155	-1139.04773	1096.99316	741.73926	-1062.25391	966.12897	734.41309	-973.76093	884.10992	794.40436	-1020.27759	854.9978	749.49426	-951.3761	797.15405	761.29578	-1234.1925	1406.98206	1147.43616	-1279.09155	1208.18701	1230.27466	-1270.93384	1087.2832	1245.72229	-1250.86353	969.42273	1266.80774	-1177.26282	834.94769	1245.96533	-1236.48132	832.87964	1278.71387	-1194.97388	759.4043	1286.70117	-1115.51086	960.04547	905.76416	-1146.69702	975.16919	1125.29504	-1275.82837	987.82904	911.69812	-1294.54443	992.09735	1078.58508	-1200.12512	644.42334	857.85748	-1223.13647	482.1503	884.32813	-1297.54749	233.85081	901.65692	-1326.71802	66.10443	955.79181	-1370.22803	56.37025	999.2439	-1184.18811	33.38275	965.93951	-1147.42041	646.39105	1197.76013	-1105.41077	525.41681	1182.78381	-1148.56018	266.57327	1191.4082	-1159.45557	77.73328	1161.05164	-1191.50122	49.20398	1112.52283	-1008.49475	40.84589	1180.11865	-1240.29626	1701.97253	984.07599	NaN	NaN	NaN	NaN	NaN	NaN	NaN	NaN	NaN	NaN	NaN	NaN	NaN	NaN	NaN	NaN	NaN	NaN	NaN	NaN	NaN
6	0.05	-1132.56628	1661.44678	930.59399	-1139.04932	1653.67114	1062.9646	-1266.26758	1607.40002	925.8866	-1270.81592	1605.10876	1055.2146	-1272.42969	1451.06726	978.93176	-1303.61475	1120.64551	983.08722	-1161.97058	1375.72583	994.8335	-1119.30237	1200.31616	995.79266	-1353.24719	1278.68323	1048.24084	-1192.05396	1406.44641	827.88898	-1156.12708	1207.51355	754.62915	-1134.10278	1096.52612	742.04291	-1056.43945	966.16333	735.12848	-967.11835	885.27057	795.24817	-1013.6449	855.39587	750.74878	-944.31384	798.04437	762.91931	-1229.9707	1406.33508	1147.59192	-1275.68567	1207.7085	1230.41248	-1268.16589	1086.82251	1245.95483	-1249.07007	968.7735	1267.20728	-1176.64587	833.57452	1246.85217	-1236.1073	832.16711	1279.44641	-1195.23242	758.2738	1287.60901	-1111.06128	959.41003	906.07684	-1142.16052	974.68378	1125.49854	-1271.3811	987.27344	912.01465	-1290.02295	991.52979	1078.92908	-1196.59387	643.94214	858.2951	-1220.58313	481.74713	884.5755	-1296.24854	233.78665	901.61981	-1326.57092	66.33968	955.79163	-1370.14661	56.61326	999.21466	-1184.07996	33.3232	965.9848	-1141.99304	646.03418	1198.27869	-1099.30017	525.36792	1183.00195	-1134.30481	265.6861	1192.30835	-1138.87354	76.41663	1162.35498	-1170.80518	48.17023	1114.20874	-986.82056	40.57548	1179.41919	-1235.52307	1701.46448	984.31232	NaN	NaN	NaN	NaN	NaN	NaN	NaN	NaN	NaN	NaN	NaN	NaN	NaN	NaN	NaN	NaN	NaN	NaN	NaN	NaN	NaN
7	0.06	-1127.8468	1660.80969	930.88684	-1134.49634	1652.93286	1063.30371	-1261.56897	1606.91028	926.05646	-1266.28845	1604.54041	1055.37012	-1268.05334	1450.44702	979.13995	-1299.12585	1119.99719	983.50037	-1157.53601	1375.07202	995.02917	-1114.96484	1199.69556	996.03552	-1348.87866	1278.02222	1048.21509	-1187.7251	1405.86902	828.0235	-1151.61572	1206.92163	754.94806	-1129.12341	1095.93066	742.36615	-1050.6499	966.09351	735.9361	-960.46301	886.33423	796.18054	-1007.16046	855.86566	752.37952	-937.36096	798.76611	764.44513	-1225.71716	1405.6438	1147.79639	-1272.34192	1207.18835	1230.53503	-1265.3761	1086.25378	1246.21863	-1247.25977	968.12897	1267.67102	-1175.87976	832.23145	1247.77112	-1235.36841	831.33215	1280.07642	-1195.28906	757.0802	1288.49426	-1106.59363	958.6673	906.35999	-1137.54468	974.05536	1125.8158	-1266.89282	986.7038	912.38782	-1285.39539	990.89661	1079.38708	-1193.15308	643.35797	858.65326	-1217.95154	481.28851	884.82428	-1295.04553	233.68547	901.60931	-1326.177	66.31248	955.91693	-1370.04065	56.81323	999.229	-1184.03381	33.30694	966.03333	-1134.95691	644.38623	1199.93835	-1093.20947	525.23102	1183.22302	-1120.22754	264.98297	1193.15979	-1118.48364	75.68716	1163.75183	-1150.48486	47.65241	1115.75769	-965.63116	40.18941	1178.79834	-1230.79749	1700.91248	984.55988	NaN	NaN	NaN	NaN	NaN	NaN	NaN	NaN	NaN	NaN	NaN	NaN	NaN	NaN	NaN	NaN	NaN	NaN	NaN	NaN	NaN
